<?xml version="1.0" encoding="utf-8"?>
<!-- Generator: Adobe Illustrator 25.0.0, SVG Export Plug-In . SVG Version: 6.00 Build 0)  -->
<svg version="1.1" id="Слой_1" xmlns="http://www.w3.org/2000/svg" xmlns:xlink="http://www.w3.org/1999/xlink" x="0px" y="0px"
	 viewBox="0 0 500 500" style="enable-background:new 0 0 500 500;" xml:space="preserve">
<style type="text/css">
	.st0{fill-rule:evenodd;clip-rule:evenodd;fill:#0099FF;}
	.st1{fill-rule:evenodd;clip-rule:evenodd;fill:#00355A;}
	.st2{fill:#00355A;}
</style>
<path class="st0" d="M395.5,361.9c-88.4-9.9-180.3,11.5-262.4,8.4C194.7,387.1,330.4,363.1,395.5,361.9L395.5,361.9z M498.5,364.1
	c-144.4-58.2-325,5.9-496.8-32.4C176.6,397.7,293.3,321.5,498.5,364.1L498.5,364.1z"/>
<path class="st1" d="M233,69.6c0,0-0.6-0.6-1.2-0.9c-0.9-0.3-1.9-0.6-3.1-0.9c-0.9-0.3-2.2,0-3.1,0s-2.2,0.6-3.4,0.9
	c-1.2,0.6-2.8,1.9-3.7,2.5s-2.2,3.7-2.5,4.4c-0.6,0.6-0.9,0.9-0.9,2.8s-0.3,1.9-0.9,3.4c-0.6,1.6-2.2,3.7-3.1,6.8
	c-0.9,3.1-1.6,3.4-1.9,5.6c-0.3,2.2-1.6,3.1-2.2,4.7s-1.9,3.4-1.9,5.3s0.3,2.5,0,3.4c0,0.6,0.3,1.9,0.3,2.8s0.9,3.4,0.6,2.8
	c-0.3-0.6,0-3.7,0.3-5.9c0.6-2.2,0.9-3.4,1.2-3.7c0-0.6,0,0.6-0.3,3.4s0,2.2,0.3,4c0.3,1.9,0,1.2,0.3,4.4c0.3,3.1-0.3,3.7-0.6,7.8
	c-0.3,4,1.2,5.3,1.2,6.5s0.3,1.6,1.2,3.1c0.9,1.6,0,2.2,0.3,1.6c0.3-0.6,0-1.9,0.3-1.6c0.3,0.3,0,1.2,0.3,2.5
	c0.3,1.2,1.2,1.9,1.6,2.5c0.3,0.9,0.3,1.9,0.3,1.9s0-2.2,0-2.8s0.3,1.2,0.6,2.2c0.3,0.9,0.3,2.5,0.3,2.5s0-1.2,0-2.2
	c0-0.9,0,2.5,0,3.4s-1.2,2.2,0,1.2s0.9-1.9,0.9-4.4s0-7.2,0-4c0,2.8,1.6,3.7,2.2,6.5c0.3,2.8,0.6,5.6,0.9,7.2c0,1.6-1.2,3.1-1.9,4.7
	s-2.8,2.8-3.7,3.1c-0.9,0.6-0.6,0.3-1.6,0.6s-0.6,0.9-1.6,1.9c-0.6,0.9-1.6,0.6-2.8,1.6c-1.6,0.9-1.6,1.2-2.2,1.9s-2.8,1.9-3.4,2.5
	c-0.6,0.6-2.5,4.7-3.1,5.6c-0.3,0.9-1.9,4.7-2.5,6.2c-0.6,1.6-0.9,5.9-0.9,7.5s0,3.7,0,5.9s-0.3,8.7-0.3,10.6
	c-0.3,1.9-0.9,6.8-1.6,12.5c-0.6,5.6,0,5-0.3,8.7c0,3.4-0.6,5.9-0.6,6.8c0,0.9-2.2,3.4-2.8,4.4c-0.6,0.9-0.9,2.5-0.9,4
	c-0.3,1.6-1.6,3.4-2.8,5.9s-1.6,4.7-1.9,5.9c-0.3,1.2-0.9,5-0.9,5.9c0,0.9,0,3.1,0,4.4c0,1.6,1.2,16.5,1.2,16.5
	c0.6,3.1-0.6,8.7-1.2,10.6c0,0.6-3.4,5.9-4.7,8.1c-1.2,2.2,0.6,3.4,2.2,5.3c1.6,2.2,2.2,5.6,3.4,7.5s1.6,3.4,1.2,4.4l-106.5-4.7
	c-17.1-0.3-10.9,7.8-3.4,8.4c7.8,5.9,338.1,13.4,345.2,7.2c14.9-1.6,24.3-15.6-0.6-14.3c-6.2,0.6-12.5,0.9-14.6,1.6
	c-8.4,1.6-123.6,4-176.8,3.1c-1.6-0.6-1.6-4-2.2-5.9c-0.6-1.9-1.6-5.3-1.6-6.8c0-1.6-0.9-5.6-0.9-6.8s-0.6-4.4-0.6-6.2
	c0-1.9,0.9-9.3,1.2-10.9s0.3-7.8,0.9-11.2c0.6-3.4,0.3-17.1,0.3-18.4c0-1.2,0.3-2.5,0.6-3.7c0.6-1.2,0.3-3.4,0.9-6.5
	c0.6-3.1-0.3-1.9-0.3-3.1c0-1.2,1.2-2.2,2.5-7.5c1.6-5.6,3.7-12.8,5-19c1.2-6.5,1.2-18.4,1.2-21.2c-0.3-2.8,0.3-3.4,0.3-3.4
	s1.9-2.8,2.5-3.7s0.9-3.1,1.6-4.7c0.3-1.6,0.3-2.8,1.6-6.2s0.9-2.8,3.7-10c4.7-9.7,4-13.1,4-13.1s1.6,0,2.5-0.3c0.9-0.6,0-0.6,0-1.6
	c0-0.6,1.2-0.6,2.5-0.6c1.2,0,0.9-0.9,0.9-1.6s0.6-0.6,1.6-0.6c0.9,0,2.8-1.6,2.8-1.6s-0.9-1.9-0.6-1.9s1.9,0.6,3.1,0.9
	c1.2,0.6,4.4,1.2,5.3,0.9c0.6-0.3,2.8-1.9,4.4-2.8c1.6-0.9,1.2-0.9,2.8-1.2c4.7-2.8,10-5,13.1-5.9c0.9-0.3,3.4,0.9,5.3-0.3
	c0,0,0.9-0.3,1.6-0.6c0.6-0.3,0.6-0.3,0.9-0.6c0.3-0.3,0.3-0.6,0.3-0.9c0-0.6-0.3-0.9-0.3-0.9c0-0.3,0.6-0.3,0.6-0.6
	c0.3-0.3,0.3-0.6,0-1.2s-0.3-0.6-0.3-0.9s0.3-0.6,0.6-0.9c0.3-0.3,0-0.6,0-0.9s-0.3-0.6-0.3-0.6s0.3-0.3,0.3-0.9
	c0-0.3-0.3-0.9-0.6-1.6c-0.3-0.6-2.2-0.6-2.2-0.6v-4.4c0,0,1.2,0,1.6,0c0.3-0.3,0.9-0.6,1.6-0.9c0.6-0.3,0.9-0.6,1.2-1.2
	c0.3-0.3,0-0.9-0.3-1.2c0-0.3,0-0.3,0-0.6v-0.3c0-0.3-0.3-0.6-0.3-0.9s0.3-0.3,0.6-0.9c0.3-0.3,0-0.9,0-1.6
	c-0.3-0.9-0.3-2.5-1.6-3.1c-0.3-1.6-0.6-2.2-2.8-1.9c0,0-0.3,0.3-0.6,0.3c-0.6,0.3-1.6,0.3-3.4,2.5c-1.9,2.2-2.5,3.1-3.4,5
	c-0.9,2.2-1.2,2.2-2.2,4c-0.9,1.6-4.4,4.7-5.3,5.9c-0.9,1.2-1.9,1.6-3.4,2.5s-6.8,6.2-6.8,6.2c0-0.9-1.2,0-4.4,0
	c-2.8-2.2-10.3-6.2-11.5-6.8c-0.9-0.6-1.9-1.2-2.5-2.2c-0.6-0.9-4-3.7-5-4.7c-1.2-0.9-2.5-0.9-3.7-1.2c-1.6-0.3-2.5,0-2.5,0
	s0-0.9,0.3-1.9c0.3-0.6,1.6-1.6,2.2-4c0.9-2.5-0.3-3.1-0.9-7.5c-0.6-4.4-0.9-5.3-0.9-5.9s0-0.6,0.3-0.9c0-0.3,0.6-0.3,0.9-0.6
	c0.3-0.3,0.3-1.2,0.3-2.2c0-0.9,0.3-1.9,0.3-1.9c0-0.3,0-0.6,0.3-0.9c0-0.3-0.6-1.2-0.6-1.2s0-0.6,0.3-1.2c0-0.6,0-3.1-0.3-5
	c-0.3-1.6-0.9-3.1-1.2-4C237,73.3,233.9,70.5,233,69.6L233,69.6z M210.9,224.6c0,0-2.5,3.4-3.1,4.4c-0.6,0.6-0.6,3.4-0.6,5.6
	c0,2.2-2.2,4.4-3.7,8.4c-1.6,4-3.7,8.1-4.7,11.2c-0.9,3.4-5,21.8-5,21.8c-0.6,3.1-0.6,8.7,0,14c0,1.6,0,2.5,0.3,4.7s0,3.4,0.3,5.6
	s0.3,3.1,0.6,5.3c0.3,2.2,0.9,2.5,1.6,4c0.6,1.6,0.9,0.9,1.9,1.6c0.9,0.6,0.9,0.3,1.6,0.6c0.6,0.3,7.5,0.3,7.5,0.3
	s13.4,0.9,13.4,0.3s-0.9-3.1-0.9-3.4c0-0.6-0.6-1.6-0.9-2.2c-0.3-0.6-2.2-1.9-3.1-3.4c-0.9-1.6-2.5-1.6-3.4-1.9s-1.9-1.9-2.8-2.5
	c-0.9-0.6-0.9-0.6-0.9-1.6s0-1.6,0.6-2.8c0.6-1.2,1.6-1.9,2.2-2.8c0.6-1.2,0.6-4.4,0.9-6.8c0.3-2.5,0-5.6-0.3-8.4s-0.9-5.6-0.9-8.1
	s-1.2-4-2.5-7.2c-1.2-2.8,0-5.6,0-8.4c0-2.8,1.2-4,1.2-5.9s0.3-2.5,0.6-4c0.3-1.6,0.3-2.2,0.3-3.1s-0.3-1.6-0.3-2.5s0-2.5,0-3.4
	s0-3.7,0-4.7C211.2,227.7,210.9,224.6,210.9,224.6L210.9,224.6z"/>
<path class="st1" d="M288.4,74.9l-0.3-0.3c0-0.3,0-3.4,0-3.4s-0.6-1.9-0.6-2.8s-0.3-2.8,0-3.1c0.3-0.3,0.3-1.9,0.3-1.9h0.3
	c0,0-0.6-14.6-0.6-15.6c0-1.2,0.6-1.6-0.3-3.1c-0.9-1.6-1.9-2.5-1.6-3.7c0.3-1.6,0.6-2.5,2.2-2.2c1.6,0,3.4,0.3,3.4,1.2
	c0.3,0.9,0.6,2.2,0,2.5s-0.9,0.9-0.9,1.6s0,1.6,0.3,2.5s0.6,1.2,0.3,2.2s0.6,14.3,0.6,14.3s0.3,0.3,0.6,1.6c0.3,1.2,0.9,3.1,0.6,3.4
	c0,0.3-0.3,1.9-0.6,2.5c-0.3,0.6-0.3,1.6-0.3,2.2s0.3,1.6,0.3,1.9s-0.3,0.6-0.3,0.6c2.2,54.2,4.4,109.6,5.9,176.8
	c0.3,4.7,0.6,10,0.9,10.3c0.6,0.6,5.9,10.9,9,16.5s4.4,14.6,5.3,19.3c1.2,4.7,0.3,7.8,0,9.7c-0.6,1.9-3.4,3.4-6.2,4
	c-2.5,0.6-7.5-0.3-10.3-0.6c-2.8-0.3-5.3-4.4-6.5-8.1c-1.6-3.7-0.6-13.7-0.9-19.3s5.6-21.8,5.6-21.8
	C294.3,207.2,290.9,130,288.4,74.9L288.4,74.9z"/>
<g>
	<path class="st2" d="M44,426.7c5.9,3.4,9,8.7,9,15.6c0,5.6-2.2,10.6-6.2,14s-9,5.6-14.9,5.6H3.3v-67.6H30c5.9,0,10.6,1.9,14.6,5.3
		s5.9,8.1,5.9,13.7C50.6,418.9,48.4,423.2,44,426.7z M29.7,406.7H16.6v14.9H30c2.2,0,3.7-0.6,5.3-2.2c1.2-1.6,2.2-3.1,2.2-5.3
		s-0.6-4-2.2-5.3C33.8,407.4,31.9,406.7,29.7,406.7z M31.9,449.4c2.2,0,4-0.6,5.6-2.2s2.2-3.4,2.2-5.6s-0.6-4-2.2-5.6
		s-3.4-2.2-5.6-2.2H16.6v15.9h15.3C31.9,449.7,31.9,449.4,31.9,449.4z"/>
	<path class="st2" d="M74.9,449.1h28.6v12.8H61.8v-67.6h41.4v12.8h-28v14.3h25.5v12.5H75.2v15.3L74.9,449.1L74.9,449.1z"/>
	<path class="st2" d="M149.9,461.8l-13.7-23.3h-10.3v23.3h-13.4v-67.6h27.1c6.2,0,11.5,2.2,15.9,6.5c4.4,4.4,6.5,9.7,6.5,15.9
		c0,4-1.2,8.1-3.4,11.5c-2.5,3.4-5.6,6.2-9.3,8.1l14.9,25.5h-14.3V461.8z M126.2,406.7v19.9h13.7c2.5,0,4.7-0.9,6.5-2.8
		c1.9-1.9,2.8-4.4,2.8-7.2c0-2.8-0.9-5-2.8-7.2c-1.9-1.9-4-2.8-6.5-2.8h-13.7V406.7z"/>
	<path class="st2" d="M172.3,394.3h13.4v67.6h-13.4V394.3z"/>
	<path class="st2" d="M238.9,461.8l-22.7-67.6h14.6l16.5,52l16.5-52h14.6l-22.7,67.6H238.9z"/>
	<path class="st2" d="M298.1,449.1h28.6v12.8h-42v-67.6h41.4v12.8h-28v14.3h25.5v12.5h-25.5C298.1,433.8,298.1,449.1,298.1,449.1z"
		/>
	<path class="st2" d="M359.1,463.1c-6.8,0-12.5-1.6-16.8-4.4c-4.7-3.1-7.8-7.2-9.7-12.1l11.5-6.5c2.5,6.8,7.8,10.3,15.6,10.3
		c3.7,0,6.5-0.6,8.1-2.2s2.5-3.1,2.5-5c0-2.5-0.9-4.4-3.1-5.6s-5.9-2.8-11.5-4.4c-3.1-0.9-5.6-1.9-7.8-2.8c-2.2-0.9-4-2.2-6.2-3.7
		s-3.7-3.4-4.7-5.6c-1.2-2.2-1.6-5-1.6-8.1c0-6.2,2.2-10.9,6.5-14.6s9.7-5.6,15.6-5.6c5.6,0,10.3,1.2,14.3,4s7.5,6.5,9.7,11.2
		l-11.2,6.5c-2.8-5.9-7.2-8.7-13.1-8.7c-2.8,0-5,0.6-6.5,1.9s-2.5,2.8-2.5,5s0.9,3.7,2.8,5.3c1.9,1.6,5.3,2.8,10.3,4.4
		c2.2,0.6,3.7,1.2,4.7,1.6c0.9,0.3,2.5,0.9,4.4,1.6c1.9,0.6,3.1,1.6,4.4,2.2c0.9,0.6,2.2,1.6,3.4,2.5c1.2,1.2,2.2,2.2,2.8,3.4
		c0.6,1.2,1.2,2.5,1.9,4c0.6,1.6,0.6,3.4,0.6,5.3c0,6.2-2.2,11.2-6.8,14.9C372.1,461.2,366.2,463.1,359.1,463.1z"/>
	<path class="st2" d="M405.1,449.1H431v12.8h-39.2v-67.6h13.4L405.1,449.1L405.1,449.1z"/>
	<path class="st2" d="M483.6,461.8l-4-12.1h-27.1l-4,12.1h-14.3l23.7-67.6h16.5l23.7,67.6H483.6z M457.1,437.3h18.7l-9.3-27.7
		L457.1,437.3z"/>
</g>
</svg>
